# xmcd CD database file
#
# Track frame offsets:
#	150
#	24822
#	40737
#	56537
#	79862
#	97710
#	121335
#	140545
#	163055
#	181335
#	203172
#	227085
#	240135
#	256935
#	270660
#	283382
#	306972
#	329312
#
# Disc length: 4671 seconds
#
# Revision: 4
# Processed by: cddbd v1.4PL0 Copyright (c) Steve Scherf et al.
# Submitted via: CDex 1.40Beta9
#
DISCID=ec123d12
DTITLE=TSA - The Best of TSA
DYEAR=1998
DGENRE=Heavy Metal
TTITLE0=Chodza ludzie
TTITLE1=Mass media
TTITLE2=Wpadka
TTITLE3=Trzy zapalki
TTITLE4=Biala smierc
TTITLE5=51
TTITLE6=Maratonczyk
TTITLE7=Kocica
TTITLE8=Jestem g³odny
TTITLE9=Heavy Metal World
TTITLE10=Alien
TTITLE11=Francuskie ciasteczka
TTITLE12=Wielka fiesta
TTITLE13=Roller Coaster
TTITLE14=Plan zycia
TTITLE15=TSA rock
TTITLE16=Bez podtekstow
TTITLE17=Wyciagam swoja dlon
EXTD=YEAR: 1998
EXTT0=
EXTT1=
EXTT2=
EXTT3=
EXTT4=
EXTT5=
EXTT6=
EXTT7=
EXTT8=
EXTT9=
EXTT10=
EXTT11=
EXTT12=
EXTT13=
EXTT14=
EXTT15=
EXTT16=
EXTT17=
PLAYORDER=
